<mxfile host="app.diagrams.net" modified="2023-06-08T18:00:23.118Z" agent="Mozilla/5.0 (Windows NT 10.0; Win64; x64) AppleWebKit/537.36 (KHTML, like Gecko) Chrome/114.0.0.0 Safari/537.36" etag="JkWAz1LzELTfsemZsE7_" version="21.3.7" type="device">
  <diagram name="Page-1" id="SaiECR1aVyFzCrkEcASR">
    <mxGraphModel dx="4003" dy="1924" grid="1" gridSize="10" guides="1" tooltips="1" connect="1" arrows="1" fold="1" page="1" pageScale="1" pageWidth="827" pageHeight="1169" math="1" shadow="0">
      <root>
        <mxCell id="0" />
        <mxCell id="1" parent="0" />
        <mxCell id="LB-m9ujF4cegfYI3096--800" value="" style="rounded=1;whiteSpace=wrap;html=1;arcSize=9;fillColor=#f5f5f5;fontColor=#333333;strokeColor=#666666;" vertex="1" parent="1">
          <mxGeometry x="40" y="280" width="630" height="1080" as="geometry" />
        </mxCell>
        <mxCell id="LB-m9ujF4cegfYI3096--776" value="" style="rounded=1;whiteSpace=wrap;html=1;arcSize=26;gradientColor=none;gradientDirection=north;fillColor=#FFFFFF;" vertex="1" parent="1">
          <mxGeometry x="315" y="590" width="100" height="50" as="geometry" />
        </mxCell>
        <mxCell id="LB-m9ujF4cegfYI3096--773" value="" style="rounded=1;whiteSpace=wrap;html=1;arcSize=26;gradientColor=none;gradientDirection=north;fillColor=#FFFFFF;" vertex="1" parent="1">
          <mxGeometry x="313.42" y="473" width="100" height="50" as="geometry" />
        </mxCell>
        <mxCell id="LB-m9ujF4cegfYI3096--772" value="" style="rounded=1;whiteSpace=wrap;html=1;arcSize=26;gradientColor=none;gradientDirection=north;fillColor=#FFFFFF;" vertex="1" parent="1">
          <mxGeometry x="303.42" y="905" width="110" height="50" as="geometry" />
        </mxCell>
        <mxCell id="LB-m9ujF4cegfYI3096--770" value="" style="rounded=1;whiteSpace=wrap;html=1;arcSize=26;gradientColor=none;gradientDirection=north;fillColor=#FFFFFF;" vertex="1" parent="1">
          <mxGeometry x="305" y="1010" width="110" height="50" as="geometry" />
        </mxCell>
        <mxCell id="LB-m9ujF4cegfYI3096--585" value="" style="rounded=1;whiteSpace=wrap;html=1;arcSize=26;gradientColor=none;gradientDirection=north;fillColor=#FFFFFF;" vertex="1" parent="1">
          <mxGeometry x="70" y="1173" width="265" height="126" as="geometry" />
        </mxCell>
        <mxCell id="LB-m9ujF4cegfYI3096--801" value="" style="edgeStyle=none;rounded=0;orthogonalLoop=1;jettySize=auto;html=1;" edge="1" parent="1" source="LB-m9ujF4cegfYI3096--103" target="LB-m9ujF4cegfYI3096--800">
          <mxGeometry relative="1" as="geometry" />
        </mxCell>
        <mxCell id="LB-m9ujF4cegfYI3096--103" value="" style="rounded=1;whiteSpace=wrap;html=1;arcSize=9;fillColor=#f5f5f5;fontColor=#333333;strokeColor=#666666;" vertex="1" parent="1">
          <mxGeometry x="-760" y="280" width="800" height="1080" as="geometry" />
        </mxCell>
        <mxCell id="F4iP8SopYAq9tRG4MQfE-244" value="" style="shape=flexArrow;endArrow=block;html=1;rounded=0;fillColor=#EA6B66;strokeColor=#000000;entryX=0;entryY=0.5;entryDx=0;entryDy=0;exitX=1;exitY=0.5;exitDx=0;exitDy=0;width=7;endSize=8.616;endWidth=10;" parent="1" source="F4iP8SopYAq9tRG4MQfE-230" target="F4iP8SopYAq9tRG4MQfE-222" edge="1">
          <mxGeometry width="50" height="50" relative="1" as="geometry">
            <mxPoint x="-342.4" y="1180" as="sourcePoint" />
            <mxPoint x="-242.39999999999998" y="1240" as="targetPoint" />
          </mxGeometry>
        </mxCell>
        <mxCell id="F4iP8SopYAq9tRG4MQfE-243" value="" style="shape=flexArrow;endArrow=block;html=1;rounded=0;fillColor=#EA6B66;strokeColor=#000000;entryX=0;entryY=0.5;entryDx=0;entryDy=0;exitX=1;exitY=0.5;exitDx=0;exitDy=0;width=7;endSize=8.616;endWidth=10;" parent="1" source="F4iP8SopYAq9tRG4MQfE-169" target="F4iP8SopYAq9tRG4MQfE-175" edge="1">
          <mxGeometry width="50" height="50" relative="1" as="geometry">
            <mxPoint x="-526" y="830" as="sourcePoint" />
            <mxPoint x="-426" y="890" as="targetPoint" />
          </mxGeometry>
        </mxCell>
        <mxCell id="s-QliCvLDeloG9_EeZUe-7" value="" style="ellipse;whiteSpace=wrap;html=1;aspect=fixed;fillColor=#e1d5e7;strokeColor=#9673a6;strokeWidth=3;" parent="1" vertex="1">
          <mxGeometry x="-450" y="520" width="80" height="80" as="geometry" />
        </mxCell>
        <mxCell id="s-QliCvLDeloG9_EeZUe-8" value="" style="ellipse;whiteSpace=wrap;html=1;aspect=fixed;fillColor=#e1d5e7;strokeColor=#9673a6;strokeWidth=3;" parent="1" vertex="1">
          <mxGeometry x="-450" y="400" width="80" height="80" as="geometry" />
        </mxCell>
        <mxCell id="s-QliCvLDeloG9_EeZUe-11" value="" style="ellipse;whiteSpace=wrap;html=1;aspect=fixed;fillColor=#ffe6cc;strokeColor=#d79b00;strokeWidth=3;" parent="1" vertex="1">
          <mxGeometry x="-270" y="520" width="80" height="80" as="geometry" />
        </mxCell>
        <mxCell id="s-QliCvLDeloG9_EeZUe-12" value="" style="ellipse;whiteSpace=wrap;html=1;aspect=fixed;fillColor=#ffe6cc;strokeColor=#d79b00;strokeWidth=3;" parent="1" vertex="1">
          <mxGeometry x="-270" y="400" width="80" height="80" as="geometry" />
        </mxCell>
        <mxCell id="s-QliCvLDeloG9_EeZUe-14" value="" style="endArrow=none;html=1;rounded=0;exitX=1;exitY=0.5;exitDx=0;exitDy=0;entryX=0;entryY=0.5;entryDx=0;entryDy=0;fillColor=#d5e8d4;strokeColor=#82B366;endSize=6;strokeWidth=3;" parent="1" source="s-QliCvLDeloG9_EeZUe-8" target="s-QliCvLDeloG9_EeZUe-12" edge="1">
          <mxGeometry width="50" height="50" relative="1" as="geometry">
            <mxPoint x="-80" y="650" as="sourcePoint" />
            <mxPoint x="-270" y="450" as="targetPoint" />
          </mxGeometry>
        </mxCell>
        <mxCell id="s-QliCvLDeloG9_EeZUe-16" value="" style="endArrow=none;html=1;rounded=0;entryX=0;entryY=0.5;entryDx=0;entryDy=0;fillColor=#d5e8d4;strokeColor=#82B366;endSize=6;strokeWidth=3;exitX=1;exitY=0.5;exitDx=0;exitDy=0;" parent="1" source="s-QliCvLDeloG9_EeZUe-36" target="s-QliCvLDeloG9_EeZUe-11" edge="1">
          <mxGeometry width="50" height="50" relative="1" as="geometry">
            <mxPoint x="-370" y="380" as="sourcePoint" />
            <mxPoint x="-276" y="480" as="targetPoint" />
          </mxGeometry>
        </mxCell>
        <mxCell id="s-QliCvLDeloG9_EeZUe-17" value="" style="endArrow=none;html=1;rounded=0;fillColor=#d5e8d4;strokeColor=#82B366;endSize=6;strokeWidth=3;exitX=1;exitY=0.5;exitDx=0;exitDy=0;entryX=0;entryY=0.5;entryDx=0;entryDy=0;" parent="1" source="s-QliCvLDeloG9_EeZUe-7" target="s-QliCvLDeloG9_EeZUe-11" edge="1">
          <mxGeometry width="50" height="50" relative="1" as="geometry">
            <mxPoint x="-360" y="390" as="sourcePoint" />
            <mxPoint x="-270" y="560" as="targetPoint" />
          </mxGeometry>
        </mxCell>
        <mxCell id="s-QliCvLDeloG9_EeZUe-36" value="&lt;font style=&quot;font-size: 30px;&quot;&gt;$$h_1$$&lt;/font&gt;" style="text;html=1;strokeColor=none;fillColor=none;align=center;verticalAlign=middle;whiteSpace=wrap;rounded=0;strokeWidth=3;" parent="1" vertex="1">
          <mxGeometry x="-450" y="420" width="80" height="40" as="geometry" />
        </mxCell>
        <mxCell id="s-QliCvLDeloG9_EeZUe-39" value="&lt;font style=&quot;font-size: 30px;&quot;&gt;$$h_2$$&lt;/font&gt;" style="text;html=1;strokeColor=none;fillColor=none;align=center;verticalAlign=middle;whiteSpace=wrap;rounded=0;strokeWidth=3;" parent="1" vertex="1">
          <mxGeometry x="-450" y="540" width="80" height="40" as="geometry" />
        </mxCell>
        <mxCell id="s-QliCvLDeloG9_EeZUe-42" value="" style="endArrow=none;html=1;rounded=0;fillColor=#d5e8d4;strokeColor=#000000;endSize=6;strokeWidth=3;exitX=1;exitY=0.5;exitDx=0;exitDy=0;entryX=0;entryY=0.5;entryDx=0;entryDy=0;" parent="1" source="s-QliCvLDeloG9_EeZUe-39" target="s-QliCvLDeloG9_EeZUe-12" edge="1">
          <mxGeometry width="50" height="50" relative="1" as="geometry">
            <mxPoint x="-360" y="510" as="sourcePoint" />
            <mxPoint x="-260" y="570" as="targetPoint" />
          </mxGeometry>
        </mxCell>
        <mxCell id="s-QliCvLDeloG9_EeZUe-45" value="&lt;font style=&quot;font-size: 30px;&quot;&gt;$$v_2$$&lt;/font&gt;" style="text;html=1;strokeColor=none;fillColor=none;align=center;verticalAlign=middle;whiteSpace=wrap;rounded=0;strokeWidth=3;" parent="1" vertex="1">
          <mxGeometry x="-270" y="540" width="80" height="40" as="geometry" />
        </mxCell>
        <mxCell id="s-QliCvLDeloG9_EeZUe-46" value="&lt;font style=&quot;font-size: 30px;&quot;&gt;$$v_1$$&lt;/font&gt;" style="text;html=1;strokeColor=none;fillColor=none;align=center;verticalAlign=middle;whiteSpace=wrap;rounded=0;strokeWidth=3;" parent="1" vertex="1">
          <mxGeometry x="-270" y="420" width="80" height="40" as="geometry" />
        </mxCell>
        <mxCell id="F4iP8SopYAq9tRG4MQfE-157" value="" style="ellipse;whiteSpace=wrap;html=1;aspect=fixed;fillColor=#e1d5e7;strokeColor=#9673a6;opacity=70;strokeWidth=3;" parent="1" vertex="1">
          <mxGeometry x="-630" y="890" width="80" height="80" as="geometry" />
        </mxCell>
        <mxCell id="F4iP8SopYAq9tRG4MQfE-158" value="" style="ellipse;whiteSpace=wrap;html=1;aspect=fixed;fillColor=#e1d5e7;strokeColor=#9673a6;opacity=70;strokeWidth=3;" parent="1" vertex="1">
          <mxGeometry x="-630" y="770" width="80" height="80" as="geometry" />
        </mxCell>
        <mxCell id="F4iP8SopYAq9tRG4MQfE-160" value="" style="ellipse;whiteSpace=wrap;html=1;aspect=fixed;fillColor=#ffe6cc;strokeColor=#d79b00;opacity=70;strokeWidth=3;" parent="1" vertex="1">
          <mxGeometry x="-450" y="890" width="80" height="80" as="geometry" />
        </mxCell>
        <mxCell id="F4iP8SopYAq9tRG4MQfE-161" value="" style="ellipse;whiteSpace=wrap;html=1;aspect=fixed;fillColor=#ffe6cc;strokeColor=#d79b00;opacity=70;strokeWidth=3;" parent="1" vertex="1">
          <mxGeometry x="-450" y="770" width="80" height="80" as="geometry" />
        </mxCell>
        <mxCell id="F4iP8SopYAq9tRG4MQfE-162" value="" style="endArrow=none;html=1;rounded=0;exitX=1;exitY=0.5;exitDx=0;exitDy=0;entryX=0;entryY=0.5;entryDx=0;entryDy=0;fillColor=#d5e8d4;strokeColor=#82b366;endSize=6;strokeWidth=3;opacity=50;" parent="1" source="F4iP8SopYAq9tRG4MQfE-158" target="F4iP8SopYAq9tRG4MQfE-161" edge="1">
          <mxGeometry width="50" height="50" relative="1" as="geometry">
            <mxPoint x="-260" y="1020" as="sourcePoint" />
            <mxPoint x="-450" y="820" as="targetPoint" />
          </mxGeometry>
        </mxCell>
        <mxCell id="F4iP8SopYAq9tRG4MQfE-163" value="" style="endArrow=none;html=1;rounded=0;entryX=0;entryY=0.5;entryDx=0;entryDy=0;fillColor=#d5e8d4;strokeColor=#82b366;endSize=6;strokeWidth=3;opacity=50;exitX=1;exitY=0.5;exitDx=0;exitDy=0;" parent="1" source="F4iP8SopYAq9tRG4MQfE-158" target="F4iP8SopYAq9tRG4MQfE-160" edge="1">
          <mxGeometry width="50" height="50" relative="1" as="geometry">
            <mxPoint x="-550" y="750" as="sourcePoint" />
            <mxPoint x="-456" y="850" as="targetPoint" />
          </mxGeometry>
        </mxCell>
        <mxCell id="F4iP8SopYAq9tRG4MQfE-164" value="" style="endArrow=none;html=1;rounded=0;fillColor=#d5e8d4;strokeColor=#82b366;endSize=6;strokeWidth=3;exitX=1;exitY=0.5;exitDx=0;exitDy=0;entryX=0;entryY=0.5;entryDx=0;entryDy=0;opacity=50;" parent="1" source="F4iP8SopYAq9tRG4MQfE-157" target="F4iP8SopYAq9tRG4MQfE-160" edge="1">
          <mxGeometry width="50" height="50" relative="1" as="geometry">
            <mxPoint x="-540" y="760" as="sourcePoint" />
            <mxPoint x="-450" y="930" as="targetPoint" />
          </mxGeometry>
        </mxCell>
        <mxCell id="F4iP8SopYAq9tRG4MQfE-168" value="&lt;font style=&quot;font-size: 30px;&quot;&gt;$$h_1$$&lt;/font&gt;" style="text;html=1;strokeColor=none;fillColor=none;align=center;verticalAlign=middle;whiteSpace=wrap;rounded=0;opacity=70;strokeWidth=3;" parent="1" vertex="1">
          <mxGeometry x="-630" y="790" width="80" height="40" as="geometry" />
        </mxCell>
        <mxCell id="F4iP8SopYAq9tRG4MQfE-169" value="&lt;font style=&quot;font-size: 30px;&quot;&gt;$$h_2$$&lt;/font&gt;" style="text;html=1;strokeColor=none;fillColor=none;align=center;verticalAlign=middle;whiteSpace=wrap;rounded=0;opacity=70;strokeWidth=3;" parent="1" vertex="1">
          <mxGeometry x="-630" y="910" width="80" height="40" as="geometry" />
        </mxCell>
        <mxCell id="F4iP8SopYAq9tRG4MQfE-172" value="" style="endArrow=none;html=1;rounded=0;fillColor=#d5e8d4;strokeColor=#82b366;endSize=6;strokeWidth=3;exitX=1;exitY=0.5;exitDx=0;exitDy=0;entryX=0;entryY=0.5;entryDx=0;entryDy=0;opacity=50;" parent="1" source="F4iP8SopYAq9tRG4MQfE-169" target="F4iP8SopYAq9tRG4MQfE-161" edge="1">
          <mxGeometry width="50" height="50" relative="1" as="geometry">
            <mxPoint x="-540" y="880" as="sourcePoint" />
            <mxPoint x="-440" y="940" as="targetPoint" />
          </mxGeometry>
        </mxCell>
        <mxCell id="F4iP8SopYAq9tRG4MQfE-174" value="&lt;font style=&quot;font-size: 30px;&quot;&gt;$$v_2$$&lt;/font&gt;" style="text;html=1;strokeColor=none;fillColor=none;align=center;verticalAlign=middle;whiteSpace=wrap;rounded=0;opacity=70;" parent="1" vertex="1">
          <mxGeometry x="-450" y="910" width="80" height="40" as="geometry" />
        </mxCell>
        <mxCell id="F4iP8SopYAq9tRG4MQfE-175" value="&lt;font style=&quot;font-size: 30px;&quot;&gt;$$v_1$$&lt;/font&gt;" style="text;html=1;strokeColor=none;fillColor=none;align=center;verticalAlign=middle;whiteSpace=wrap;rounded=0;opacity=70;strokeWidth=3;" parent="1" vertex="1">
          <mxGeometry x="-450" y="790" width="80" height="40" as="geometry" />
        </mxCell>
        <mxCell id="F4iP8SopYAq9tRG4MQfE-187" value="" style="ellipse;whiteSpace=wrap;html=1;aspect=fixed;fillColor=#e1d5e7;strokeColor=#9673a6;opacity=70;strokeWidth=3;" parent="1" vertex="1">
          <mxGeometry x="-250" y="890" width="80" height="80" as="geometry" />
        </mxCell>
        <mxCell id="F4iP8SopYAq9tRG4MQfE-188" value="" style="ellipse;whiteSpace=wrap;html=1;aspect=fixed;fillColor=#e1d5e7;strokeColor=#9673a6;opacity=70;strokeWidth=3;" parent="1" vertex="1">
          <mxGeometry x="-250" y="770" width="80" height="80" as="geometry" />
        </mxCell>
        <mxCell id="F4iP8SopYAq9tRG4MQfE-190" value="" style="ellipse;whiteSpace=wrap;html=1;aspect=fixed;fillColor=#ffe6cc;strokeColor=#d79b00;opacity=70;strokeWidth=3;" parent="1" vertex="1">
          <mxGeometry x="-70" y="890" width="80" height="80" as="geometry" />
        </mxCell>
        <mxCell id="F4iP8SopYAq9tRG4MQfE-191" value="" style="ellipse;whiteSpace=wrap;html=1;aspect=fixed;fillColor=#ffe6cc;strokeColor=#d79b00;opacity=70;strokeWidth=3;" parent="1" vertex="1">
          <mxGeometry x="-70" y="770" width="80" height="80" as="geometry" />
        </mxCell>
        <mxCell id="F4iP8SopYAq9tRG4MQfE-192" value="" style="endArrow=none;html=1;rounded=0;exitX=1;exitY=0.5;exitDx=0;exitDy=0;entryX=0;entryY=0.5;entryDx=0;entryDy=0;fillColor=#d5e8d4;strokeColor=#82b366;endSize=6;strokeWidth=3;opacity=50;" parent="1" source="F4iP8SopYAq9tRG4MQfE-188" target="F4iP8SopYAq9tRG4MQfE-191" edge="1">
          <mxGeometry width="50" height="50" relative="1" as="geometry">
            <mxPoint x="120" y="1020" as="sourcePoint" />
            <mxPoint x="-70" y="820" as="targetPoint" />
          </mxGeometry>
        </mxCell>
        <mxCell id="F4iP8SopYAq9tRG4MQfE-193" value="" style="endArrow=none;html=1;rounded=0;entryX=0;entryY=0.5;entryDx=0;entryDy=0;fillColor=#d5e8d4;strokeColor=#82b366;endSize=6;strokeWidth=3;opacity=50;exitX=1;exitY=0.5;exitDx=0;exitDy=0;" parent="1" source="F4iP8SopYAq9tRG4MQfE-188" target="F4iP8SopYAq9tRG4MQfE-190" edge="1">
          <mxGeometry width="50" height="50" relative="1" as="geometry">
            <mxPoint x="-170" y="750" as="sourcePoint" />
            <mxPoint x="-76" y="850" as="targetPoint" />
          </mxGeometry>
        </mxCell>
        <mxCell id="F4iP8SopYAq9tRG4MQfE-194" value="" style="endArrow=none;html=1;rounded=0;fillColor=#d5e8d4;strokeColor=#82b366;endSize=6;strokeWidth=3;exitX=1;exitY=0.5;exitDx=0;exitDy=0;entryX=0;entryY=0.5;entryDx=0;entryDy=0;" parent="1" source="F4iP8SopYAq9tRG4MQfE-187" target="F4iP8SopYAq9tRG4MQfE-190" edge="1">
          <mxGeometry width="50" height="50" relative="1" as="geometry">
            <mxPoint x="-160" y="760" as="sourcePoint" />
            <mxPoint x="-70" y="930" as="targetPoint" />
          </mxGeometry>
        </mxCell>
        <mxCell id="F4iP8SopYAq9tRG4MQfE-198" value="&lt;font style=&quot;font-size: 30px;&quot;&gt;$$h_1$$&lt;/font&gt;" style="text;html=1;strokeColor=none;fillColor=none;align=center;verticalAlign=middle;whiteSpace=wrap;rounded=0;opacity=70;strokeWidth=3;" parent="1" vertex="1">
          <mxGeometry x="-250" y="790" width="80" height="40" as="geometry" />
        </mxCell>
        <mxCell id="F4iP8SopYAq9tRG4MQfE-199" value="&lt;font style=&quot;font-size: 30px;&quot;&gt;$$h_2$$&lt;/font&gt;" style="text;html=1;strokeColor=none;fillColor=none;align=center;verticalAlign=middle;whiteSpace=wrap;rounded=0;opacity=50;" parent="1" vertex="1">
          <mxGeometry x="-250" y="910" width="80" height="40" as="geometry" />
        </mxCell>
        <mxCell id="F4iP8SopYAq9tRG4MQfE-202" value="" style="endArrow=none;html=1;rounded=0;fillColor=#d5e8d4;strokeColor=#000000;endSize=6;strokeWidth=3;exitX=1;exitY=0.5;exitDx=0;exitDy=0;entryX=0;entryY=0.5;entryDx=0;entryDy=0;dashed=1;dashPattern=1 1;" parent="1" source="F4iP8SopYAq9tRG4MQfE-199" target="F4iP8SopYAq9tRG4MQfE-191" edge="1">
          <mxGeometry width="50" height="50" relative="1" as="geometry">
            <mxPoint x="-160" y="880" as="sourcePoint" />
            <mxPoint x="-60" y="940" as="targetPoint" />
          </mxGeometry>
        </mxCell>
        <mxCell id="F4iP8SopYAq9tRG4MQfE-204" value="&lt;font style=&quot;font-size: 30px;&quot;&gt;$$v_2$$&lt;/font&gt;" style="text;html=1;strokeColor=none;fillColor=none;align=center;verticalAlign=middle;whiteSpace=wrap;rounded=0;opacity=70;strokeWidth=3;" parent="1" vertex="1">
          <mxGeometry x="-70" y="910" width="80" height="40" as="geometry" />
        </mxCell>
        <mxCell id="F4iP8SopYAq9tRG4MQfE-205" value="&lt;font style=&quot;font-size: 30px;&quot;&gt;$$v_1$$&lt;/font&gt;" style="text;html=1;strokeColor=none;fillColor=none;align=center;verticalAlign=middle;whiteSpace=wrap;rounded=0;opacity=70;strokeWidth=3;" parent="1" vertex="1">
          <mxGeometry x="-70" y="790" width="80" height="40" as="geometry" />
        </mxCell>
        <mxCell id="F4iP8SopYAq9tRG4MQfE-207" value="" style="shape=flexArrow;endArrow=block;html=1;rounded=0;fillColor=#7EA6E0;strokeColor=#000000;entryX=0;entryY=0.5;entryDx=0;entryDy=0;exitX=1;exitY=0.5;exitDx=0;exitDy=0;width=7;endSize=8.616;endWidth=10;" parent="1" source="F4iP8SopYAq9tRG4MQfE-168" target="F4iP8SopYAq9tRG4MQfE-174" edge="1">
          <mxGeometry width="50" height="50" relative="1" as="geometry">
            <mxPoint x="-410" y="770" as="sourcePoint" />
            <mxPoint x="-510" y="710" as="targetPoint" />
          </mxGeometry>
        </mxCell>
        <mxCell id="F4iP8SopYAq9tRG4MQfE-211" value="" style="shape=flexArrow;endArrow=block;html=1;rounded=0;fillColor=#7EA6E0;strokeColor=#000000;entryX=0;entryY=0.5;entryDx=0;entryDy=0;exitX=1;exitY=0.5;exitDx=0;exitDy=0;width=7;endSize=8.616;endWidth=10;" parent="1" source="F4iP8SopYAq9tRG4MQfE-188" edge="1">
          <mxGeometry width="50" height="50" relative="1" as="geometry">
            <mxPoint x="-170" y="750" as="sourcePoint" />
            <mxPoint x="-70" y="930" as="targetPoint" />
          </mxGeometry>
        </mxCell>
        <mxCell id="F4iP8SopYAq9tRG4MQfE-213" value="" style="rounded=1;whiteSpace=wrap;html=1;strokeWidth=3;fillColor=#dae8fc;strokeColor=#000000;" parent="1" vertex="1">
          <mxGeometry x="-334.26" y="880" width="60" height="10" as="geometry" />
        </mxCell>
        <mxCell id="F4iP8SopYAq9tRG4MQfE-218" value="" style="ellipse;whiteSpace=wrap;html=1;aspect=fixed;fillColor=#e1d5e7;strokeColor=#9673a6;opacity=70;strokeWidth=3;" parent="1" vertex="1">
          <mxGeometry x="-434.13" y="1190" width="80" height="80" as="geometry" />
        </mxCell>
        <mxCell id="F4iP8SopYAq9tRG4MQfE-219" value="" style="ellipse;whiteSpace=wrap;html=1;aspect=fixed;fillColor=#e1d5e7;strokeColor=#9673a6;opacity=70;strokeWidth=3;" parent="1" vertex="1">
          <mxGeometry x="-434.13" y="1070" width="80" height="80" as="geometry" />
        </mxCell>
        <mxCell id="F4iP8SopYAq9tRG4MQfE-221" value="" style="ellipse;whiteSpace=wrap;html=1;aspect=fixed;fillColor=#ffe6cc;strokeColor=#d79b00;opacity=70;strokeWidth=3;" parent="1" vertex="1">
          <mxGeometry x="-252.39999999999998" y="1190" width="80" height="80" as="geometry" />
        </mxCell>
        <mxCell id="F4iP8SopYAq9tRG4MQfE-222" value="" style="ellipse;whiteSpace=wrap;html=1;aspect=fixed;fillColor=#ffe6cc;strokeColor=#d79b00;opacity=70;strokeWidth=3;" parent="1" vertex="1">
          <mxGeometry x="-252.39999999999998" y="1070" width="80" height="80" as="geometry" />
        </mxCell>
        <mxCell id="F4iP8SopYAq9tRG4MQfE-223" value="" style="endArrow=none;html=1;rounded=0;exitX=1;exitY=0.5;exitDx=0;exitDy=0;entryX=0;entryY=0.5;entryDx=0;entryDy=0;fillColor=#d5e8d4;strokeColor=#82b366;endSize=6;strokeWidth=3;" parent="1" source="F4iP8SopYAq9tRG4MQfE-219" target="F4iP8SopYAq9tRG4MQfE-222" edge="1">
          <mxGeometry width="50" height="50" relative="1" as="geometry">
            <mxPoint x="-62.39999999999998" y="1320" as="sourcePoint" />
            <mxPoint x="-252.39999999999998" y="1120" as="targetPoint" />
          </mxGeometry>
        </mxCell>
        <mxCell id="F4iP8SopYAq9tRG4MQfE-224" value="" style="endArrow=none;html=1;rounded=0;entryX=0;entryY=0.5;entryDx=0;entryDy=0;fillColor=#d5e8d4;strokeColor=#82b366;endSize=6;strokeWidth=3;exitX=1;exitY=0.5;exitDx=0;exitDy=0;" parent="1" source="F4iP8SopYAq9tRG4MQfE-229" target="F4iP8SopYAq9tRG4MQfE-221" edge="1">
          <mxGeometry width="50" height="50" relative="1" as="geometry">
            <mxPoint x="-352.4" y="1050" as="sourcePoint" />
            <mxPoint x="-258.4" y="1150" as="targetPoint" />
          </mxGeometry>
        </mxCell>
        <mxCell id="F4iP8SopYAq9tRG4MQfE-225" value="" style="endArrow=none;html=1;rounded=0;fillColor=#d5e8d4;strokeColor=#82b366;endSize=6;strokeWidth=3;exitX=1;exitY=0.5;exitDx=0;exitDy=0;entryX=0;entryY=0.5;entryDx=0;entryDy=0;opacity=50;" parent="1" source="F4iP8SopYAq9tRG4MQfE-218" target="F4iP8SopYAq9tRG4MQfE-221" edge="1">
          <mxGeometry width="50" height="50" relative="1" as="geometry">
            <mxPoint x="-342.4" y="1060" as="sourcePoint" />
            <mxPoint x="-252.39999999999998" y="1230" as="targetPoint" />
          </mxGeometry>
        </mxCell>
        <mxCell id="F4iP8SopYAq9tRG4MQfE-229" value="&lt;font style=&quot;font-size: 30px;&quot;&gt;$$h_1$$&lt;/font&gt;" style="text;html=1;strokeColor=none;fillColor=none;align=center;verticalAlign=middle;whiteSpace=wrap;rounded=0;opacity=70;strokeWidth=3;" parent="1" vertex="1">
          <mxGeometry x="-434.13" y="1090" width="80" height="40" as="geometry" />
        </mxCell>
        <mxCell id="F4iP8SopYAq9tRG4MQfE-230" value="&lt;font style=&quot;font-size: 30px;&quot;&gt;$$h_2$$&lt;/font&gt;" style="text;html=1;strokeColor=none;fillColor=none;align=center;verticalAlign=middle;whiteSpace=wrap;rounded=0;opacity=70;strokeWidth=3;" parent="1" vertex="1">
          <mxGeometry x="-434.13" y="1210" width="80" height="40" as="geometry" />
        </mxCell>
        <mxCell id="F4iP8SopYAq9tRG4MQfE-233" value="" style="endArrow=none;html=1;rounded=0;fillColor=#d5e8d4;strokeColor=#82b366;endSize=6;strokeWidth=3;exitX=1;exitY=0.5;exitDx=0;exitDy=0;entryX=0;entryY=0.5;entryDx=0;entryDy=0;opacity=50;" parent="1" source="F4iP8SopYAq9tRG4MQfE-230" target="F4iP8SopYAq9tRG4MQfE-222" edge="1">
          <mxGeometry width="50" height="50" relative="1" as="geometry">
            <mxPoint x="-342.4" y="1180" as="sourcePoint" />
            <mxPoint x="-242.39999999999998" y="1240" as="targetPoint" />
          </mxGeometry>
        </mxCell>
        <mxCell id="F4iP8SopYAq9tRG4MQfE-235" value="&lt;font style=&quot;font-size: 30px;&quot;&gt;$$v_2$$&lt;/font&gt;" style="text;html=1;strokeColor=none;fillColor=none;align=center;verticalAlign=middle;whiteSpace=wrap;rounded=0;opacity=70;strokeWidth=3;" parent="1" vertex="1">
          <mxGeometry x="-252.39999999999998" y="1210" width="80" height="40" as="geometry" />
        </mxCell>
        <mxCell id="F4iP8SopYAq9tRG4MQfE-236" value="&lt;font style=&quot;font-size: 30px;&quot;&gt;$$v_1$$&lt;/font&gt;" style="text;html=1;strokeColor=none;fillColor=none;align=center;verticalAlign=middle;whiteSpace=wrap;rounded=0;opacity=70;strokeWidth=3;" parent="1" vertex="1">
          <mxGeometry x="-252.39999999999998" y="1090" width="80" height="40" as="geometry" />
        </mxCell>
        <mxCell id="F4iP8SopYAq9tRG4MQfE-239" value="" style="shape=flexArrow;endArrow=block;html=1;rounded=0;fillColor=#EA6B66;strokeColor=#000000;entryX=1;entryY=0.5;entryDx=0;entryDy=0;exitX=0;exitY=0.5;exitDx=0;exitDy=0;endWidth=15.555555555555555;endSize=11.305555555555555;" parent="1" target="F4iP8SopYAq9tRG4MQfE-230" edge="1">
          <mxGeometry width="50" height="50" relative="1" as="geometry">
            <mxPoint x="-252.39999999999998" y="1110" as="sourcePoint" />
            <mxPoint x="-352.4" y="1170" as="targetPoint" />
          </mxGeometry>
        </mxCell>
        <mxCell id="F4iP8SopYAq9tRG4MQfE-242" value="" style="shape=flexArrow;endArrow=block;html=1;rounded=0;fillColor=#EA6B66;strokeColor=#000000;entryX=0;entryY=0.5;entryDx=0;entryDy=0;exitX=1;exitY=0.5;exitDx=0;exitDy=0;width=7;endSize=8.616;endWidth=10;" parent="1" source="F4iP8SopYAq9tRG4MQfE-169" target="F4iP8SopYAq9tRG4MQfE-174" edge="1">
          <mxGeometry width="50" height="50" relative="1" as="geometry">
            <mxPoint x="-540" y="760" as="sourcePoint" />
            <mxPoint x="-440" y="940" as="targetPoint" />
          </mxGeometry>
        </mxCell>
        <mxCell id="F4iP8SopYAq9tRG4MQfE-210" value="" style="shape=flexArrow;endArrow=block;html=1;rounded=0;fillColor=#7EA6E0;strokeColor=#000000;entryX=1;entryY=0.5;entryDx=0;entryDy=0;exitX=0;exitY=0.5;exitDx=0;exitDy=0;endWidth=17.5;endSize=12.072222222222223;" parent="1" target="F4iP8SopYAq9tRG4MQfE-188" edge="1">
          <mxGeometry width="50" height="50" relative="1" as="geometry">
            <mxPoint x="-70" y="810" as="sourcePoint" />
            <mxPoint x="-170" y="750" as="targetPoint" />
            <Array as="points" />
          </mxGeometry>
        </mxCell>
        <mxCell id="F4iP8SopYAq9tRG4MQfE-208" value="" style="shape=flexArrow;endArrow=block;html=1;rounded=0;fillColor=#7EA6E0;strokeColor=#000000;entryX=1;entryY=0.5;entryDx=0;entryDy=0;exitX=0;exitY=0.5;exitDx=0;exitDy=0;endWidth=17.5;endSize=12.072222222222223;" parent="1" source="F4iP8SopYAq9tRG4MQfE-175" target="F4iP8SopYAq9tRG4MQfE-168" edge="1">
          <mxGeometry width="50" height="50" relative="1" as="geometry">
            <mxPoint x="-420" y="740" as="sourcePoint" />
            <mxPoint x="-520" y="800" as="targetPoint" />
            <Array as="points" />
          </mxGeometry>
        </mxCell>
        <mxCell id="F4iP8SopYAq9tRG4MQfE-209" value="" style="shape=flexArrow;endArrow=block;html=1;rounded=0;fillColor=#EA6B66;strokeColor=#000000;entryX=1;entryY=0.5;entryDx=0;entryDy=0;exitX=0;exitY=0.5;exitDx=0;exitDy=0;endWidth=15.555555555555555;endSize=11.305555555555555;" parent="1" source="F4iP8SopYAq9tRG4MQfE-175" target="F4iP8SopYAq9tRG4MQfE-169" edge="1">
          <mxGeometry width="50" height="50" relative="1" as="geometry">
            <mxPoint x="-450" y="810" as="sourcePoint" />
            <mxPoint x="-400" y="760" as="targetPoint" />
          </mxGeometry>
        </mxCell>
        <mxCell id="F4iP8SopYAq9tRG4MQfE-253" value="" style="strokeWidth=7;html=1;shape=mxgraph.flowchart.annotation_2;align=left;labelPosition=right;pointerEvents=1;rotation=90;" parent="1" vertex="1">
          <mxGeometry x="-381.39" y="514.53" width="126.25" height="354.69" as="geometry" />
        </mxCell>
        <mxCell id="F4iP8SopYAq9tRG4MQfE-255" value="&lt;font color=&quot;#7ea6e0&quot; style=&quot;font-size: 30px;&quot;&gt;$$\zeta G(v_1h_2)$$&lt;/font&gt;" style="text;html=1;strokeColor=none;fillColor=none;align=center;verticalAlign=middle;whiteSpace=wrap;rounded=0;movable=1;resizable=1;rotatable=1;deletable=1;editable=1;locked=0;connectable=1;container=0;" parent="1" vertex="1">
          <mxGeometry x="-168.26263157894732" y="990" width="56.84210526315789" height="30" as="geometry" />
        </mxCell>
        <mxCell id="F4iP8SopYAq9tRG4MQfE-256" value="&lt;font color=&quot;#ea6b66&quot; style=&quot;font-size: 30px;&quot;&gt;$$I(v_1h_2)&lt;br&gt;$$&lt;/font&gt;" style="text;html=1;strokeColor=none;fillColor=none;align=center;verticalAlign=middle;whiteSpace=wrap;rounded=0;movable=1;resizable=1;rotatable=1;deletable=1;editable=1;locked=0;connectable=1;container=0;" parent="1" vertex="1">
          <mxGeometry x="-344.1326315789473" y="1307" width="56.84210526315789" height="30" as="geometry" />
        </mxCell>
        <mxCell id="F4iP8SopYAq9tRG4MQfE-214" value="" style="rounded=1;whiteSpace=wrap;html=1;strokeWidth=3;fillColor=#dae8fc;strokeColor=#000000;" parent="1" vertex="1">
          <mxGeometry x="-333.26" y="1050" width="60" height="10" as="geometry" />
        </mxCell>
        <mxCell id="F4iP8SopYAq9tRG4MQfE-215" value="" style="rounded=1;whiteSpace=wrap;html=1;strokeWidth=3;fillColor=#dae8fc;strokeColor=#000000;" parent="1" vertex="1">
          <mxGeometry x="-334.26" y="1030" width="60" height="10" as="geometry" />
        </mxCell>
        <mxCell id="F4iP8SopYAq9tRG4MQfE-292" value="&lt;font style=&quot;font-size: 50px;&quot;&gt;$$\dots$$&lt;/font&gt;" style="text;html=1;strokeColor=none;fillColor=none;align=center;verticalAlign=middle;whiteSpace=wrap;rounded=0;movable=1;resizable=1;rotatable=1;deletable=1;editable=1;locked=0;connectable=1;container=0;" parent="1" vertex="1">
          <mxGeometry x="-150.00263157894733" y="480" width="56.84210526315789" height="30" as="geometry" />
        </mxCell>
        <mxCell id="LB-m9ujF4cegfYI3096--2" value="" style="shape=flexArrow;endArrow=block;html=1;rounded=0;fillColor=#7EA6E0;strokeColor=#000000;entryX=1;entryY=0.5;entryDx=0;entryDy=0;width=3.333333333333333;endSize=8.658333333333333;endWidth=10;exitX=0;exitY=0.5;exitDx=0;exitDy=0;" edge="1" parent="1" source="F4iP8SopYAq9tRG4MQfE-174" target="F4iP8SopYAq9tRG4MQfE-169">
          <mxGeometry width="50" height="50" relative="1" as="geometry">
            <mxPoint x="-420" y="860" as="sourcePoint" />
            <mxPoint x="-440" y="940" as="targetPoint" />
          </mxGeometry>
        </mxCell>
        <mxCell id="LB-m9ujF4cegfYI3096--4" value="" style="shape=flexArrow;endArrow=block;html=1;rounded=0;fillColor=#EA6B66;strokeColor=#000000;width=3.333333333333333;endSize=8.658333333333333;endWidth=10;exitX=-0.026;exitY=0.555;exitDx=0;exitDy=0;exitPerimeter=0;" edge="1" parent="1" source="F4iP8SopYAq9tRG4MQfE-174">
          <mxGeometry width="50" height="50" relative="1" as="geometry">
            <mxPoint x="-460" y="940" as="sourcePoint" />
            <mxPoint x="-550" y="930" as="targetPoint" />
            <Array as="points">
              <mxPoint x="-530" y="960" />
            </Array>
          </mxGeometry>
        </mxCell>
        <mxCell id="LB-m9ujF4cegfYI3096--5" value="" style="shape=flexArrow;endArrow=block;html=1;rounded=0;fillColor=#7EA6E0;strokeColor=#000000;entryX=1;entryY=0.5;entryDx=0;entryDy=0;width=3.333333333333333;endSize=8.658333333333333;endWidth=10;exitX=0;exitY=0.5;exitDx=0;exitDy=0;" edge="1" parent="1">
          <mxGeometry width="50" height="50" relative="1" as="geometry">
            <mxPoint x="-68.25999999999999" y="930" as="sourcePoint" />
            <mxPoint x="-168.26" y="930" as="targetPoint" />
          </mxGeometry>
        </mxCell>
        <mxCell id="LB-m9ujF4cegfYI3096--6" value="" style="shape=flexArrow;endArrow=block;html=1;rounded=0;fillColor=#EA6B66;strokeColor=#000000;width=3.333333333333333;endSize=8.658333333333333;endWidth=10;exitX=0;exitY=0.5;exitDx=0;exitDy=0;entryX=0.972;entryY=0.486;entryDx=0;entryDy=0;entryPerimeter=0;" edge="1" parent="1" source="F4iP8SopYAq9tRG4MQfE-235" target="F4iP8SopYAq9tRG4MQfE-230">
          <mxGeometry width="50" height="50" relative="1" as="geometry">
            <mxPoint x="-256.13" y="1232" as="sourcePoint" />
            <mxPoint x="-354.13" y="1230" as="targetPoint" />
            <Array as="points">
              <mxPoint x="-334.13" y="1260" />
            </Array>
          </mxGeometry>
        </mxCell>
        <mxCell id="F4iP8SopYAq9tRG4MQfE-240" value="" style="shape=flexArrow;endArrow=block;html=1;rounded=0;fillColor=#EA6B66;strokeColor=#000000;entryX=0;entryY=0.5;entryDx=0;entryDy=0;exitX=1;exitY=0.5;exitDx=0;exitDy=0;width=7;endSize=8.616;endWidth=10;" parent="1" source="F4iP8SopYAq9tRG4MQfE-230" target="F4iP8SopYAq9tRG4MQfE-235" edge="1">
          <mxGeometry width="50" height="50" relative="1" as="geometry">
            <mxPoint x="-512.4" y="1070" as="sourcePoint" />
            <mxPoint x="-412.4" y="1250" as="targetPoint" />
          </mxGeometry>
        </mxCell>
        <mxCell id="LB-m9ujF4cegfYI3096--15" value="" style="group" vertex="1" connectable="0" parent="1">
          <mxGeometry x="-750.0026315789473" y="410" width="277.9926315789474" height="176" as="geometry" />
        </mxCell>
        <mxCell id="LB-m9ujF4cegfYI3096--16" value="&lt;font style=&quot;font-size: 30px;&quot;&gt;$$A = &lt;br&gt;$$&lt;/font&gt;" style="text;html=1;strokeColor=none;fillColor=none;align=center;verticalAlign=middle;whiteSpace=wrap;rounded=0;movable=1;resizable=1;rotatable=1;deletable=1;editable=1;locked=0;connectable=1;container=0;" vertex="1" parent="LB-m9ujF4cegfYI3096--15">
          <mxGeometry y="82" width="56.84210526315789" height="30" as="geometry" />
        </mxCell>
        <mxCell id="LB-m9ujF4cegfYI3096--17" value="&lt;font style=&quot;font-size: 13px;&quot;&gt;$$&amp;nbsp;&lt;br style=&quot;border-color: var(--border-color);&quot;&gt;\begin{pmatrix}&lt;br style=&quot;border-color: var(--border-color);&quot;&gt;&amp;amp;&amp;nbsp;\quad&amp;nbsp;&amp;nbsp;\quad &amp;amp;&amp;nbsp;\quad &amp;amp;&amp;nbsp;\quad &amp;amp;&amp;nbsp;\quad &amp;amp;&amp;nbsp;\\&lt;br style=&quot;border-color: var(--border-color);&quot;&gt;&amp;amp;&amp;nbsp; &amp;amp;&amp;nbsp; &amp;amp;&amp;nbsp; &amp;amp;&amp;nbsp; &amp;amp;&amp;nbsp; &amp;amp; \\&lt;br style=&quot;border-color: var(--border-color);&quot;&gt;&amp;amp;&amp;nbsp; &amp;amp;&amp;nbsp; &amp;amp;&amp;nbsp; &amp;amp;&amp;nbsp; &amp;amp;&amp;nbsp; &amp;amp;&amp;nbsp;\\&lt;br style=&quot;border-color: var(--border-color);&quot;&gt;&amp;amp;&amp;nbsp; &amp;amp;&amp;nbsp; &amp;amp;&amp;nbsp; &amp;amp;&amp;nbsp; &amp;amp;&amp;nbsp; &amp;amp; \\&lt;br style=&quot;border-color: var(--border-color);&quot;&gt;&amp;amp;&amp;nbsp; &amp;amp;&amp;nbsp; &amp;amp;&amp;nbsp; &amp;amp;&amp;nbsp; &amp;amp;&amp;nbsp; &amp;amp;&amp;nbsp;\\&lt;br style=&quot;border-color: var(--border-color);&quot;&gt;&amp;amp;&amp;nbsp; &amp;amp;&amp;nbsp; &amp;amp;&amp;nbsp; &amp;amp;&amp;nbsp; &amp;amp;&amp;nbsp; &amp;amp;&amp;nbsp;\\&lt;br style=&quot;border-color: var(--border-color);&quot;&gt;&amp;amp;&amp;nbsp; &amp;amp;&amp;nbsp; &amp;amp;&amp;nbsp; &amp;amp;&amp;nbsp; &amp;amp;&amp;nbsp; &amp;amp;&amp;nbsp;\\&lt;br style=&quot;border-color: var(--border-color);&quot;&gt;\end{pmatrix}&lt;br style=&quot;border-color: var(--border-color);&quot;&gt;$$&lt;/font&gt;" style="text;whiteSpace=wrap;html=1;movable=1;resizable=1;rotatable=1;deletable=1;editable=1;locked=0;connectable=1;container=0;" vertex="1" parent="LB-m9ujF4cegfYI3096--15">
          <mxGeometry x="65.84526315789475" y="10" width="198.94736842105263" height="70" as="geometry" />
        </mxCell>
        <mxCell id="LB-m9ujF4cegfYI3096--18" value="" style="rounded=1;whiteSpace=wrap;html=1;fillColor=#d5e8d4;strokeColor=#82b366;opacity=50;movable=1;resizable=1;rotatable=1;deletable=1;editable=1;locked=0;connectable=1;container=0;" vertex="1" parent="LB-m9ujF4cegfYI3096--15">
          <mxGeometry x="87.36368421052634" y="106" width="70" height="70" as="geometry" />
        </mxCell>
        <mxCell id="LB-m9ujF4cegfYI3096--19" value="" style="rounded=1;whiteSpace=wrap;html=1;fillColor=#f5f5f5;strokeColor=#666666;opacity=70;movable=1;resizable=1;rotatable=1;deletable=1;editable=1;locked=0;connectable=1;container=0;fontColor=#333333;" vertex="1" parent="LB-m9ujF4cegfYI3096--15">
          <mxGeometry x="172.6268421052631" y="106" width="70" height="70" as="geometry" />
        </mxCell>
        <mxCell id="LB-m9ujF4cegfYI3096--20" value="" style="rounded=1;whiteSpace=wrap;html=1;fillColor=#f5f5f5;strokeColor=#666666;opacity=70;movable=1;resizable=1;rotatable=1;deletable=1;editable=1;locked=0;connectable=1;container=0;fontColor=#333333;" vertex="1" parent="LB-m9ujF4cegfYI3096--15">
          <mxGeometry x="87.36368421052634" y="26" width="70" height="70" as="geometry" />
        </mxCell>
        <mxCell id="LB-m9ujF4cegfYI3096--21" value="" style="rounded=1;whiteSpace=wrap;html=1;fillColor=#d5e8d4;strokeColor=#82b366;opacity=50;movable=1;resizable=1;rotatable=1;deletable=1;editable=1;locked=0;connectable=1;container=0;" vertex="1" parent="LB-m9ujF4cegfYI3096--15">
          <mxGeometry x="172.6268421052631" y="26" width="70" height="70" as="geometry" />
        </mxCell>
        <mxCell id="LB-m9ujF4cegfYI3096--22" value="&lt;font style=&quot;font-size: 25px;&quot;&gt;$$0$$&lt;/font&gt;" style="text;html=1;strokeColor=none;fillColor=none;align=center;verticalAlign=middle;whiteSpace=wrap;rounded=0;movable=1;resizable=1;rotatable=1;deletable=1;editable=1;locked=0;connectable=1;container=0;" vertex="1" parent="LB-m9ujF4cegfYI3096--15">
          <mxGeometry x="92.1005263157895" y="46" width="56.84210526315789" height="30" as="geometry" />
        </mxCell>
        <mxCell id="LB-m9ujF4cegfYI3096--23" value="&lt;font style=&quot;font-size: 25px;&quot;&gt;$$0$$&lt;/font&gt;" style="text;html=1;strokeColor=none;fillColor=none;align=center;verticalAlign=middle;whiteSpace=wrap;rounded=0;movable=1;resizable=1;rotatable=1;deletable=1;editable=1;locked=0;connectable=1;container=0;" vertex="1" parent="LB-m9ujF4cegfYI3096--15">
          <mxGeometry x="179.20999999999992" y="126" width="56.84210526315789" height="30" as="geometry" />
        </mxCell>
        <mxCell id="LB-m9ujF4cegfYI3096--24" value="&lt;font style=&quot;font-size: 25px;&quot;&gt;$$h*v$$&lt;/font&gt;" style="text;html=1;strokeColor=none;fillColor=none;align=center;verticalAlign=middle;whiteSpace=wrap;rounded=0;movable=1;resizable=1;rotatable=1;deletable=1;editable=1;locked=0;connectable=1;container=0;" vertex="1" parent="LB-m9ujF4cegfYI3096--15">
          <mxGeometry x="179.20999999999992" y="46" width="56.84210526315789" height="30" as="geometry" />
        </mxCell>
        <mxCell id="LB-m9ujF4cegfYI3096--25" value="&lt;font style=&quot;font-size: 25px;&quot;&gt;$$v*h$$&lt;/font&gt;" style="text;html=1;strokeColor=none;fillColor=none;align=center;verticalAlign=middle;whiteSpace=wrap;rounded=0;movable=1;resizable=1;rotatable=1;deletable=1;editable=1;locked=0;connectable=1;container=0;" vertex="1" parent="LB-m9ujF4cegfYI3096--15">
          <mxGeometry x="93.9405263157895" y="126" width="56.84210526315789" height="30" as="geometry" />
        </mxCell>
        <mxCell id="LB-m9ujF4cegfYI3096--26" value="" style="ellipse;whiteSpace=wrap;html=1;aspect=fixed;fillColor=#e1d5e7;strokeColor=#9673a6;container=0;" vertex="1" parent="LB-m9ujF4cegfYI3096--15">
          <mxGeometry x="95.74263157894737" width="15" height="15" as="geometry" />
        </mxCell>
        <mxCell id="LB-m9ujF4cegfYI3096--27" value="" style="ellipse;whiteSpace=wrap;html=1;aspect=fixed;fillColor=#e1d5e7;strokeColor=#9673a6;container=0;" vertex="1" parent="LB-m9ujF4cegfYI3096--15">
          <mxGeometry x="136.7815204678363" width="15" height="15" as="geometry" />
        </mxCell>
        <mxCell id="LB-m9ujF4cegfYI3096--28" value="" style="ellipse;whiteSpace=wrap;html=1;aspect=fixed;fillColor=#ffe6cc;strokeColor=#d79b00;container=0;" vertex="1" parent="LB-m9ujF4cegfYI3096--15">
          <mxGeometry x="175.6026315789474" width="15" height="15" as="geometry" />
        </mxCell>
        <mxCell id="LB-m9ujF4cegfYI3096--29" value="" style="ellipse;whiteSpace=wrap;html=1;aspect=fixed;fillColor=#ffe6cc;strokeColor=#d79b00;container=0;" vertex="1" parent="LB-m9ujF4cegfYI3096--15">
          <mxGeometry x="216.64152046783636" width="15" height="15" as="geometry" />
        </mxCell>
        <mxCell id="LB-m9ujF4cegfYI3096--30" value="" style="ellipse;whiteSpace=wrap;html=1;aspect=fixed;fillColor=#e1d5e7;strokeColor=#9673a6;flipH=0;flipV=1;rotation=90;container=0;" vertex="1" parent="LB-m9ujF4cegfYI3096--15">
          <mxGeometry x="262.99263157894734" y="32.5" width="15" height="15" as="geometry" />
        </mxCell>
        <mxCell id="LB-m9ujF4cegfYI3096--31" value="" style="ellipse;whiteSpace=wrap;html=1;aspect=fixed;fillColor=#e1d5e7;strokeColor=#9673a6;flipH=0;flipV=1;rotation=90;container=0;" vertex="1" parent="LB-m9ujF4cegfYI3096--15">
          <mxGeometry x="262.99263157894734" y="70.5" width="15" height="15" as="geometry" />
        </mxCell>
        <mxCell id="LB-m9ujF4cegfYI3096--32" value="" style="ellipse;whiteSpace=wrap;html=1;aspect=fixed;fillColor=#ffe6cc;strokeColor=#d79b00;container=0;rotation=90;" vertex="1" parent="LB-m9ujF4cegfYI3096--15">
          <mxGeometry x="262.9926315789474" y="113.5" width="15" height="15" as="geometry" />
        </mxCell>
        <mxCell id="LB-m9ujF4cegfYI3096--33" value="" style="ellipse;whiteSpace=wrap;html=1;aspect=fixed;fillColor=#ffe6cc;strokeColor=#d79b00;container=0;rotation=90;direction=south;" vertex="1" parent="LB-m9ujF4cegfYI3096--15">
          <mxGeometry x="262.9926315789474" y="151.5" width="15" height="15" as="geometry" />
        </mxCell>
        <mxCell id="i3affyTTZf7D_yzO-vb2-2" value="&lt;font style=&quot;font-size: 10px;&quot;&gt;&amp;nbsp;$$&amp;nbsp;A =&lt;br style=&quot;border-color: var(--border-color);&quot;&gt;\begin{pmatrix}&lt;br style=&quot;border-color: var(--border-color);&quot;&gt;0 &amp;amp;0&amp;amp;1&amp;nbsp; &amp;amp;0 \\&lt;br style=&quot;border-color: var(--border-color);&quot;&gt;0 &amp;amp;&amp;nbsp; 0&amp;amp; 1 &amp;amp; 1 \\&lt;br style=&quot;border-color: var(--border-color);&quot;&gt;1&amp;nbsp; &amp;amp;1 &amp;amp;0 &amp;amp;&amp;nbsp; 0&amp;nbsp; \\&lt;br style=&quot;border-color: var(--border-color);&quot;&gt;0&amp;nbsp; &amp;amp;1&amp;amp; 0 &amp;amp;&amp;nbsp; 0&amp;nbsp; \\&lt;br style=&quot;border-color: var(--border-color);&quot;&gt;\end{pmatrix}&lt;br style=&quot;border-color: var(--border-color);&quot;&gt;$$&lt;/font&gt;" style="text;whiteSpace=wrap;html=1;movable=1;resizable=1;rotatable=1;deletable=1;editable=1;locked=0;connectable=1;container=0;" parent="1" vertex="1">
          <mxGeometry x="-130" y="660" width="174.79" height="50" as="geometry" />
        </mxCell>
        <mxCell id="LB-m9ujF4cegfYI3096--34" value="&lt;font style=&quot;font-size: 10px;&quot;&gt;&amp;nbsp;$$&amp;nbsp;A =&lt;br style=&quot;border-color: var(--border-color);&quot;&gt;\begin{pmatrix}&lt;br style=&quot;border-color: var(--border-color);&quot;&gt;0 &amp;amp;0&amp;amp;1&amp;nbsp; &amp;amp;1 \\&lt;br style=&quot;border-color: var(--border-color);&quot;&gt;0 &amp;amp;&amp;nbsp; 0&amp;amp; 1 &amp;amp; 1 \\&lt;br style=&quot;border-color: var(--border-color);&quot;&gt;1&amp;nbsp; &amp;amp;1 &amp;amp;0 &amp;amp;&amp;nbsp; 0&amp;nbsp; \\&lt;br style=&quot;border-color: var(--border-color);&quot;&gt;1&amp;nbsp; &amp;amp;1&amp;amp; 0 &amp;amp;&amp;nbsp; 0&amp;nbsp; \\&lt;br style=&quot;border-color: var(--border-color);&quot;&gt;\end{pmatrix}&lt;br style=&quot;border-color: var(--border-color);&quot;&gt;$$&lt;/font&gt;" style="text;whiteSpace=wrap;html=1;movable=1;resizable=1;rotatable=1;deletable=1;editable=1;locked=0;connectable=1;container=0;" vertex="1" parent="1">
          <mxGeometry x="-624.79" y="666.88" width="174.79" height="50" as="geometry" />
        </mxCell>
        <mxCell id="LB-m9ujF4cegfYI3096--89" value="&lt;font color=&quot;#7ea6e0&quot; style=&quot;font-size: 30px;&quot;&gt;$$&lt;br&gt;&amp;nbsp;G(v_1h_2)$$&lt;/font&gt;" style="text;html=1;strokeColor=none;fillColor=none;align=center;verticalAlign=middle;whiteSpace=wrap;rounded=0;movable=1;resizable=1;rotatable=1;deletable=1;editable=1;locked=0;connectable=1;container=0;" vertex="1" parent="1">
          <mxGeometry x="-538.8526315789472" y="990" width="56.84210526315789" height="30" as="geometry" />
        </mxCell>
        <mxCell id="LB-m9ujF4cegfYI3096--60" value="" style="ellipse;whiteSpace=wrap;html=1;aspect=fixed;fillColor=#e1d5e7;strokeColor=#9673a6;container=0;rotation=90;strokeWidth=3;" vertex="1" parent="1">
          <mxGeometry x="87" y="675" width="60" height="60" as="geometry" />
        </mxCell>
        <mxCell id="LB-m9ujF4cegfYI3096--90" value="" style="ellipse;whiteSpace=wrap;html=1;aspect=fixed;fillColor=#e1d5e7;strokeColor=#9673a6;container=0;rotation=90;strokeWidth=3;" vertex="1" parent="1">
          <mxGeometry x="87" y="575" width="60" height="60" as="geometry" />
        </mxCell>
        <mxCell id="LB-m9ujF4cegfYI3096--93" value="" style="ellipse;whiteSpace=wrap;html=1;aspect=fixed;fillColor=#ffe6cc;strokeColor=#d79b00;container=0;rotation=90;" vertex="1" parent="1">
          <mxGeometry x="247" y="625" width="60" height="60" as="geometry" />
        </mxCell>
        <mxCell id="LB-m9ujF4cegfYI3096--94" value="" style="ellipse;whiteSpace=wrap;html=1;aspect=fixed;fillColor=#ffe6cc;strokeColor=#d79b00;container=0;rotation=90;" vertex="1" parent="1">
          <mxGeometry x="247" y="521" width="60" height="60" as="geometry" />
        </mxCell>
        <mxCell id="LB-m9ujF4cegfYI3096--95" value="" style="ellipse;whiteSpace=wrap;html=1;aspect=fixed;fillColor=#ffe6cc;strokeColor=#d79b00;container=0;rotation=90;" vertex="1" parent="1">
          <mxGeometry x="247" y="425" width="60" height="60" as="geometry" />
        </mxCell>
        <mxCell id="LB-m9ujF4cegfYI3096--97" value="" style="endArrow=none;html=1;rounded=0;exitX=1;exitY=0.5;exitDx=0;exitDy=0;strokeWidth=11;entryX=0.5;entryY=1;entryDx=0;entryDy=0;strokeColor=#67AB9F;opacity=70;" edge="1" parent="1" target="LB-m9ujF4cegfYI3096--95">
          <mxGeometry width="50" height="50" relative="1" as="geometry">
            <mxPoint x="147" y="505" as="sourcePoint" />
            <mxPoint x="268" y="565" as="targetPoint" />
          </mxGeometry>
        </mxCell>
        <mxCell id="LB-m9ujF4cegfYI3096--98" value="" style="endArrow=none;html=1;rounded=0;exitX=0.5;exitY=0;exitDx=0;exitDy=0;strokeWidth=11;entryX=0.5;entryY=1;entryDx=0;entryDy=0;strokeColor=#FFD966;opacity=70;" edge="1" parent="1" source="LB-m9ujF4cegfYI3096--90" target="LB-m9ujF4cegfYI3096--94">
          <mxGeometry width="50" height="50" relative="1" as="geometry">
            <mxPoint x="137" y="625" as="sourcePoint" />
            <mxPoint x="258" y="690" as="targetPoint" />
          </mxGeometry>
        </mxCell>
        <mxCell id="LB-m9ujF4cegfYI3096--100" value="" style="endArrow=none;html=1;rounded=0;strokeWidth=11;entryX=0.5;entryY=1;entryDx=0;entryDy=0;exitX=0.5;exitY=0;exitDx=0;exitDy=0;strokeColor=#FFD966;opacity=70;" edge="1" parent="1" source="LB-m9ujF4cegfYI3096--60" target="LB-m9ujF4cegfYI3096--93">
          <mxGeometry width="50" height="50" relative="1" as="geometry">
            <mxPoint x="178" y="760" as="sourcePoint" />
            <mxPoint x="289" y="720" as="targetPoint" />
          </mxGeometry>
        </mxCell>
        <mxCell id="LB-m9ujF4cegfYI3096--115" value="" style="endArrow=none;html=1;rounded=0;strokeWidth=11;entryX=0.5;entryY=1;entryDx=0;entryDy=0;exitX=0.5;exitY=0;exitDx=0;exitDy=0;strokeColor=#FFD966;opacity=70;" edge="1" parent="1" source="LB-m9ujF4cegfYI3096--60" target="LB-m9ujF4cegfYI3096--94">
          <mxGeometry width="50" height="50" relative="1" as="geometry">
            <mxPoint x="137" y="716" as="sourcePoint" />
            <mxPoint x="258" y="665" as="targetPoint" />
          </mxGeometry>
        </mxCell>
        <mxCell id="LB-m9ujF4cegfYI3096--126" value="" style="verticalLabelPosition=bottom;verticalAlign=top;html=1;shape=mxgraph.basic.polygon;polyCoords=[[0.25,0],[0.75,0],[1,0.25],[1,0.75],[0.8,1],[0.25,1],[0,0.75],[0,0.25]];polyline=0;fillColor=#e1d5e7;strokeColor=#9673a6;strokeWidth=3;" vertex="1" parent="1">
          <mxGeometry x="87" y="376" width="60" height="60" as="geometry" />
        </mxCell>
        <mxCell id="LB-m9ujF4cegfYI3096--131" value="" style="endArrow=none;html=1;rounded=0;exitX=0.5;exitY=0;exitDx=0;exitDy=0;strokeWidth=11;entryX=0.5;entryY=1;entryDx=0;entryDy=0;fillColor=#d5e8d4;strokeColor=#FFD966;opacity=70;" edge="1" parent="1" source="LB-m9ujF4cegfYI3096--90" target="LB-m9ujF4cegfYI3096--93">
          <mxGeometry width="50" height="50" relative="1" as="geometry">
            <mxPoint x="157" y="615" as="sourcePoint" />
            <mxPoint x="257" y="561" as="targetPoint" />
          </mxGeometry>
        </mxCell>
        <mxCell id="LB-m9ujF4cegfYI3096--276" value="" style="rhombus;whiteSpace=wrap;html=1;fillColor=#e1d5e7;strokeColor=#9673a6;strokeWidth=3;" vertex="1" parent="1">
          <mxGeometry x="87" y="476" width="60" height="60" as="geometry" />
        </mxCell>
        <mxCell id="LB-m9ujF4cegfYI3096--277" value="" style="endArrow=none;html=1;rounded=0;strokeWidth=11;entryX=0.5;entryY=1;entryDx=0;entryDy=0;strokeColor=#67AB9F;opacity=70;" edge="1" parent="1" target="LB-m9ujF4cegfYI3096--94">
          <mxGeometry width="50" height="50" relative="1" as="geometry">
            <mxPoint x="147" y="505" as="sourcePoint" />
            <mxPoint x="287" y="494" as="targetPoint" />
          </mxGeometry>
        </mxCell>
        <mxCell id="LB-m9ujF4cegfYI3096--304" value="" style="ellipse;whiteSpace=wrap;html=1;aspect=fixed;fillColor=#e1d5e7;strokeColor=#9673a6;container=0;rotation=90;strokeWidth=3;" vertex="1" parent="1">
          <mxGeometry x="421" y="583.5" width="60" height="60" as="geometry" />
        </mxCell>
        <mxCell id="LB-m9ujF4cegfYI3096--305" value="" style="ellipse;whiteSpace=wrap;html=1;aspect=fixed;fillColor=#ffe6cc;strokeColor=#d79b00;container=0;rotation=90;" vertex="1" parent="1">
          <mxGeometry x="581" y="633.5" width="60" height="60" as="geometry" />
        </mxCell>
        <mxCell id="LB-m9ujF4cegfYI3096--306" value="" style="ellipse;whiteSpace=wrap;html=1;aspect=fixed;fillColor=#ffe6cc;strokeColor=#d79b00;container=0;rotation=90;" vertex="1" parent="1">
          <mxGeometry x="581" y="529.5" width="60" height="60" as="geometry" />
        </mxCell>
        <mxCell id="LB-m9ujF4cegfYI3096--307" value="" style="ellipse;whiteSpace=wrap;html=1;aspect=fixed;fillColor=#ffe6cc;strokeColor=#d79b00;container=0;rotation=90;" vertex="1" parent="1">
          <mxGeometry x="581" y="433.5" width="60" height="60" as="geometry" />
        </mxCell>
        <mxCell id="LB-m9ujF4cegfYI3096--315" value="" style="rhombus;whiteSpace=wrap;html=1;fillColor=#e1d5e7;strokeColor=#9673a6;strokeWidth=3;" vertex="1" parent="1">
          <mxGeometry x="421" y="484.5" width="60" height="60" as="geometry" />
        </mxCell>
        <mxCell id="LB-m9ujF4cegfYI3096--317" value="" style="ellipse;whiteSpace=wrap;html=1;aspect=fixed;fillColor=#e1d5e7;strokeColor=#9673a6;container=0;rotation=90;strokeWidth=3;" vertex="1" parent="1">
          <mxGeometry x="421" y="385" width="60" height="60" as="geometry" />
        </mxCell>
        <mxCell id="LB-m9ujF4cegfYI3096--318" value="" style="verticalLabelPosition=bottom;verticalAlign=top;html=1;shape=mxgraph.basic.polygon;polyCoords=[[0.25,0],[0.75,0],[1,0.25],[1,0.75],[0.8,1],[0.25,1],[0,0.75],[0,0.25]];polyline=0;fillColor=#e1d5e7;strokeColor=#9673a6;strokeWidth=3;" vertex="1" parent="1">
          <mxGeometry x="421" y="675" width="60" height="60" as="geometry" />
        </mxCell>
        <mxCell id="LB-m9ujF4cegfYI3096--403" value="" style="endArrow=none;html=1;rounded=0;exitX=0.5;exitY=0;exitDx=0;exitDy=0;strokeWidth=11;entryX=0.5;entryY=1;entryDx=0;entryDy=0;strokeColor=#FFD966;opacity=70;" edge="1" parent="1">
          <mxGeometry width="50" height="50" relative="1" as="geometry">
            <mxPoint x="481" y="615" as="sourcePoint" />
            <mxPoint x="581" y="561" as="targetPoint" />
          </mxGeometry>
        </mxCell>
        <mxCell id="LB-m9ujF4cegfYI3096--404" value="" style="endArrow=none;html=1;rounded=0;strokeWidth=11;entryX=0.5;entryY=1;entryDx=0;entryDy=0;exitX=0.5;exitY=0;exitDx=0;exitDy=0;strokeColor=#67AB9F;opacity=70;" edge="1" parent="1">
          <mxGeometry width="50" height="50" relative="1" as="geometry">
            <mxPoint x="481" y="715" as="sourcePoint" />
            <mxPoint x="581" y="665" as="targetPoint" />
          </mxGeometry>
        </mxCell>
        <mxCell id="LB-m9ujF4cegfYI3096--405" value="" style="endArrow=none;html=1;rounded=0;strokeWidth=11;entryX=0.5;entryY=1;entryDx=0;entryDy=0;exitX=0.5;exitY=0;exitDx=0;exitDy=0;strokeColor=#67AB9F;opacity=70;" edge="1" parent="1">
          <mxGeometry width="50" height="50" relative="1" as="geometry">
            <mxPoint x="481" y="715" as="sourcePoint" />
            <mxPoint x="581" y="561" as="targetPoint" />
          </mxGeometry>
        </mxCell>
        <mxCell id="LB-m9ujF4cegfYI3096--406" value="" style="endArrow=none;html=1;rounded=0;exitX=0.5;exitY=0;exitDx=0;exitDy=0;strokeWidth=11;entryX=0.5;entryY=1;entryDx=0;entryDy=0;fillColor=#d5e8d4;strokeColor=#FFD966;opacity=70;" edge="1" parent="1">
          <mxGeometry width="50" height="50" relative="1" as="geometry">
            <mxPoint x="481" y="615" as="sourcePoint" />
            <mxPoint x="581" y="665" as="targetPoint" />
          </mxGeometry>
        </mxCell>
        <mxCell id="LB-m9ujF4cegfYI3096--407" value="" style="endArrow=none;html=1;rounded=0;strokeWidth=11;entryX=0.5;entryY=1;entryDx=0;entryDy=0;strokeColor=#67AB9F;opacity=70;" edge="1" parent="1">
          <mxGeometry width="50" height="50" relative="1" as="geometry">
            <mxPoint x="481" y="515" as="sourcePoint" />
            <mxPoint x="581" y="561" as="targetPoint" />
          </mxGeometry>
        </mxCell>
        <mxCell id="LB-m9ujF4cegfYI3096--536" value="" style="endArrow=none;html=1;rounded=0;exitX=1.059;exitY=0.525;exitDx=0;exitDy=0;strokeWidth=11;entryX=0.5;entryY=1;entryDx=0;entryDy=0;strokeColor=#67AB9F;opacity=70;exitPerimeter=0;" edge="1" parent="1" source="LB-m9ujF4cegfYI3096--126" target="LB-m9ujF4cegfYI3096--95">
          <mxGeometry width="50" height="50" relative="1" as="geometry">
            <mxPoint x="157" y="515" as="sourcePoint" />
            <mxPoint x="257" y="465" as="targetPoint" />
          </mxGeometry>
        </mxCell>
        <mxCell id="LB-m9ujF4cegfYI3096--537" value="" style="endArrow=none;html=1;rounded=0;exitX=0.5;exitY=0;exitDx=0;exitDy=0;strokeWidth=11;entryX=0.5;entryY=1;entryDx=0;entryDy=0;strokeColor=#FFD966;opacity=70;" edge="1" parent="1" source="LB-m9ujF4cegfYI3096--317" target="LB-m9ujF4cegfYI3096--307">
          <mxGeometry width="50" height="50" relative="1" as="geometry">
            <mxPoint x="491" y="425" as="sourcePoint" />
            <mxPoint x="591" y="371" as="targetPoint" />
          </mxGeometry>
        </mxCell>
        <mxCell id="LB-m9ujF4cegfYI3096--538" value="" style="endArrow=none;html=1;rounded=0;strokeWidth=11;entryX=0.5;entryY=1;entryDx=0;entryDy=0;strokeColor=#67AB9F;opacity=70;exitX=1;exitY=0.5;exitDx=0;exitDy=0;" edge="1" parent="1" source="LB-m9ujF4cegfYI3096--315" target="LB-m9ujF4cegfYI3096--307">
          <mxGeometry width="50" height="50" relative="1" as="geometry">
            <mxPoint x="491" y="525" as="sourcePoint" />
            <mxPoint x="591" y="571" as="targetPoint" />
          </mxGeometry>
        </mxCell>
        <mxCell id="LB-m9ujF4cegfYI3096--539" value="" style="ellipse;whiteSpace=wrap;html=1;aspect=fixed;fillColor=#e1d5e7;strokeColor=#9673a6;container=0;rotation=90;strokeWidth=3;" vertex="1" parent="1">
          <mxGeometry x="87" y="1104" width="60" height="60" as="geometry" />
        </mxCell>
        <mxCell id="LB-m9ujF4cegfYI3096--540" value="" style="ellipse;whiteSpace=wrap;html=1;aspect=fixed;fillColor=#e1d5e7;strokeColor=#9673a6;container=0;rotation=90;strokeWidth=3;" vertex="1" parent="1">
          <mxGeometry x="87" y="1004" width="60" height="60" as="geometry" />
        </mxCell>
        <mxCell id="LB-m9ujF4cegfYI3096--541" value="" style="ellipse;whiteSpace=wrap;html=1;aspect=fixed;fillColor=#ffe6cc;strokeColor=#d79b00;container=0;rotation=90;" vertex="1" parent="1">
          <mxGeometry x="247" y="1054" width="60" height="60" as="geometry" />
        </mxCell>
        <mxCell id="LB-m9ujF4cegfYI3096--542" value="" style="ellipse;whiteSpace=wrap;html=1;aspect=fixed;fillColor=#ffe6cc;strokeColor=#d79b00;container=0;rotation=90;" vertex="1" parent="1">
          <mxGeometry x="247" y="950" width="60" height="60" as="geometry" />
        </mxCell>
        <mxCell id="LB-m9ujF4cegfYI3096--543" value="" style="ellipse;whiteSpace=wrap;html=1;aspect=fixed;fillColor=#ffe6cc;strokeColor=#d79b00;container=0;rotation=90;" vertex="1" parent="1">
          <mxGeometry x="247" y="854" width="60" height="60" as="geometry" />
        </mxCell>
        <mxCell id="LB-m9ujF4cegfYI3096--544" value="" style="endArrow=none;html=1;rounded=0;exitX=1;exitY=0.5;exitDx=0;exitDy=0;strokeWidth=9;entryX=0.5;entryY=1;entryDx=0;entryDy=0;strokeColor=#67AB9F;opacity=70;" edge="1" parent="1" target="LB-m9ujF4cegfYI3096--543">
          <mxGeometry width="50" height="50" relative="1" as="geometry">
            <mxPoint x="147" y="934" as="sourcePoint" />
            <mxPoint x="268" y="994" as="targetPoint" />
          </mxGeometry>
        </mxCell>
        <mxCell id="LB-m9ujF4cegfYI3096--545" value="" style="endArrow=none;html=1;rounded=0;exitX=0.5;exitY=0;exitDx=0;exitDy=0;strokeWidth=5;entryX=0.5;entryY=1;entryDx=0;entryDy=0;strokeColor=#FFD966;opacity=70;" edge="1" parent="1" source="LB-m9ujF4cegfYI3096--540" target="LB-m9ujF4cegfYI3096--542">
          <mxGeometry width="50" height="50" relative="1" as="geometry">
            <mxPoint x="137" y="1054" as="sourcePoint" />
            <mxPoint x="258" y="1119" as="targetPoint" />
          </mxGeometry>
        </mxCell>
        <mxCell id="LB-m9ujF4cegfYI3096--546" value="" style="endArrow=none;html=1;rounded=0;strokeWidth=5;entryX=0.5;entryY=1;entryDx=0;entryDy=0;exitX=0.5;exitY=0;exitDx=0;exitDy=0;strokeColor=#FFD966;opacity=70;" edge="1" parent="1" source="LB-m9ujF4cegfYI3096--539" target="LB-m9ujF4cegfYI3096--541">
          <mxGeometry width="50" height="50" relative="1" as="geometry">
            <mxPoint x="178" y="1189" as="sourcePoint" />
            <mxPoint x="289" y="1149" as="targetPoint" />
          </mxGeometry>
        </mxCell>
        <mxCell id="LB-m9ujF4cegfYI3096--547" value="" style="endArrow=none;html=1;rounded=0;strokeWidth=5;entryX=0.5;entryY=1;entryDx=0;entryDy=0;exitX=0.5;exitY=0;exitDx=0;exitDy=0;strokeColor=#FFD966;opacity=70;" edge="1" parent="1" source="LB-m9ujF4cegfYI3096--539" target="LB-m9ujF4cegfYI3096--542">
          <mxGeometry width="50" height="50" relative="1" as="geometry">
            <mxPoint x="137" y="1145" as="sourcePoint" />
            <mxPoint x="258" y="1094" as="targetPoint" />
          </mxGeometry>
        </mxCell>
        <mxCell id="LB-m9ujF4cegfYI3096--548" value="" style="verticalLabelPosition=bottom;verticalAlign=top;html=1;shape=mxgraph.basic.polygon;polyCoords=[[0.25,0],[0.75,0],[1,0.25],[1,0.75],[0.8,1],[0.25,1],[0,0.75],[0,0.25]];polyline=0;fillColor=#e1d5e7;strokeColor=#9673a6;strokeWidth=3;" vertex="1" parent="1">
          <mxGeometry x="87" y="805" width="60" height="60" as="geometry" />
        </mxCell>
        <mxCell id="LB-m9ujF4cegfYI3096--549" value="" style="endArrow=none;html=1;rounded=0;exitX=0.5;exitY=0;exitDx=0;exitDy=0;strokeWidth=4;entryX=0.5;entryY=1;entryDx=0;entryDy=0;fillColor=#d5e8d4;strokeColor=#000000;opacity=70;dashed=1;dashPattern=1 1;" edge="1" parent="1" source="LB-m9ujF4cegfYI3096--540" target="LB-m9ujF4cegfYI3096--541">
          <mxGeometry width="50" height="50" relative="1" as="geometry">
            <mxPoint x="157" y="1044" as="sourcePoint" />
            <mxPoint x="257" y="990" as="targetPoint" />
          </mxGeometry>
        </mxCell>
        <mxCell id="LB-m9ujF4cegfYI3096--550" value="" style="rhombus;whiteSpace=wrap;html=1;fillColor=#e1d5e7;strokeColor=#9673a6;strokeWidth=3;" vertex="1" parent="1">
          <mxGeometry x="87" y="905" width="60" height="60" as="geometry" />
        </mxCell>
        <mxCell id="LB-m9ujF4cegfYI3096--551" value="" style="endArrow=none;html=1;rounded=0;strokeWidth=7;entryX=0.5;entryY=1;entryDx=0;entryDy=0;strokeColor=#67AB9F;opacity=70;" edge="1" parent="1" target="LB-m9ujF4cegfYI3096--542">
          <mxGeometry width="50" height="50" relative="1" as="geometry">
            <mxPoint x="147" y="934" as="sourcePoint" />
            <mxPoint x="287" y="923" as="targetPoint" />
          </mxGeometry>
        </mxCell>
        <mxCell id="LB-m9ujF4cegfYI3096--552" value="" style="ellipse;whiteSpace=wrap;html=1;aspect=fixed;fillColor=#e1d5e7;strokeColor=#9673a6;container=0;rotation=90;strokeWidth=3;" vertex="1" parent="1">
          <mxGeometry x="421" y="1012.5" width="60" height="60" as="geometry" />
        </mxCell>
        <mxCell id="LB-m9ujF4cegfYI3096--553" value="" style="ellipse;whiteSpace=wrap;html=1;aspect=fixed;fillColor=#ffe6cc;strokeColor=#d79b00;container=0;rotation=90;" vertex="1" parent="1">
          <mxGeometry x="581" y="1062.5" width="60" height="60" as="geometry" />
        </mxCell>
        <mxCell id="LB-m9ujF4cegfYI3096--554" value="" style="ellipse;whiteSpace=wrap;html=1;aspect=fixed;fillColor=#ffe6cc;strokeColor=#d79b00;container=0;rotation=90;" vertex="1" parent="1">
          <mxGeometry x="581" y="958.5" width="60" height="60" as="geometry" />
        </mxCell>
        <mxCell id="LB-m9ujF4cegfYI3096--555" value="" style="ellipse;whiteSpace=wrap;html=1;aspect=fixed;fillColor=#ffe6cc;strokeColor=#d79b00;container=0;rotation=90;" vertex="1" parent="1">
          <mxGeometry x="581" y="862.5" width="60" height="60" as="geometry" />
        </mxCell>
        <mxCell id="LB-m9ujF4cegfYI3096--556" value="" style="rhombus;whiteSpace=wrap;html=1;fillColor=#e1d5e7;strokeColor=#9673a6;strokeWidth=3;" vertex="1" parent="1">
          <mxGeometry x="421" y="913.5" width="60" height="60" as="geometry" />
        </mxCell>
        <mxCell id="LB-m9ujF4cegfYI3096--557" value="" style="ellipse;whiteSpace=wrap;html=1;aspect=fixed;fillColor=#e1d5e7;strokeColor=#9673a6;container=0;rotation=90;strokeWidth=3;" vertex="1" parent="1">
          <mxGeometry x="421" y="814" width="60" height="60" as="geometry" />
        </mxCell>
        <mxCell id="LB-m9ujF4cegfYI3096--558" value="" style="verticalLabelPosition=bottom;verticalAlign=top;html=1;shape=mxgraph.basic.polygon;polyCoords=[[0.25,0],[0.75,0],[1,0.25],[1,0.75],[0.8,1],[0.25,1],[0,0.75],[0,0.25]];polyline=0;fillColor=#e1d5e7;strokeColor=#9673a6;strokeWidth=3;" vertex="1" parent="1">
          <mxGeometry x="421" y="1104" width="60" height="60" as="geometry" />
        </mxCell>
        <mxCell id="LB-m9ujF4cegfYI3096--564" value="" style="endArrow=none;html=1;rounded=0;exitX=0.989;exitY=0.446;exitDx=0;exitDy=0;strokeWidth=10;entryX=0.5;entryY=1;entryDx=0;entryDy=0;strokeColor=#67AB9F;opacity=70;exitPerimeter=0;" edge="1" parent="1" source="LB-m9ujF4cegfYI3096--548" target="LB-m9ujF4cegfYI3096--543">
          <mxGeometry width="50" height="50" relative="1" as="geometry">
            <mxPoint x="157" y="944" as="sourcePoint" />
            <mxPoint x="257" y="894" as="targetPoint" />
          </mxGeometry>
        </mxCell>
        <mxCell id="LB-m9ujF4cegfYI3096--569" value="&lt;font color=&quot;#67ab9f&quot; style=&quot;font-size: 30px;&quot;&gt;$$G_{extra}$$&lt;/font&gt;" style="text;html=1;strokeColor=none;fillColor=none;align=center;verticalAlign=middle;whiteSpace=wrap;rounded=0;movable=1;resizable=1;rotatable=1;deletable=1;editable=1;locked=0;connectable=1;container=0;" vertex="1" parent="1">
          <mxGeometry x="337.99736842105267" y="481.5" width="56.84210526315789" height="30" as="geometry" />
        </mxCell>
        <mxCell id="LB-m9ujF4cegfYI3096--570" value="&lt;font color=&quot;#ffd966&quot; style=&quot;font-size: 30px;&quot;&gt;$$G_{intra}$$&lt;/font&gt;" style="text;html=1;strokeColor=none;fillColor=none;align=center;verticalAlign=middle;whiteSpace=wrap;rounded=0;movable=1;resizable=1;rotatable=1;deletable=1;editable=1;locked=0;connectable=1;container=0;" vertex="1" parent="1">
          <mxGeometry x="336.99736842105267" y="599" width="56.84210526315789" height="30" as="geometry" />
        </mxCell>
        <mxCell id="LB-m9ujF4cegfYI3096--572" style="edgeStyle=none;rounded=0;orthogonalLoop=1;jettySize=auto;html=1;exitX=0.75;exitY=1;exitDx=0;exitDy=0;" edge="1" parent="1" source="LB-m9ujF4cegfYI3096--570" target="LB-m9ujF4cegfYI3096--570">
          <mxGeometry relative="1" as="geometry" />
        </mxCell>
        <mxCell id="LB-m9ujF4cegfYI3096--574" value="&lt;font color=&quot;#67ab9f&quot; style=&quot;font-size: 30px;&quot;&gt;$$\zeta G_{extra}$$&lt;/font&gt;" style="text;html=1;strokeColor=none;fillColor=none;align=center;verticalAlign=middle;whiteSpace=wrap;rounded=0;movable=1;resizable=1;rotatable=1;deletable=1;editable=1;locked=0;connectable=1;container=0;" vertex="1" parent="1">
          <mxGeometry x="330.99736842105267" y="913" width="56.84210526315789" height="30" as="geometry" />
        </mxCell>
        <mxCell id="LB-m9ujF4cegfYI3096--575" value="&lt;font color=&quot;#ffd966&quot; style=&quot;font-size: 30px;&quot;&gt;$$\zeta G_{intra}$$&lt;/font&gt;" style="text;html=1;strokeColor=none;fillColor=none;align=center;verticalAlign=middle;whiteSpace=wrap;rounded=0;movable=1;resizable=1;rotatable=1;deletable=1;editable=1;locked=0;connectable=1;container=0;horizontal=1;" vertex="1" parent="1">
          <mxGeometry x="331.57736842105265" y="1016.48" width="56.84210526315789" height="30" as="geometry" />
        </mxCell>
        <mxCell id="LB-m9ujF4cegfYI3096--576" style="edgeStyle=none;rounded=0;orthogonalLoop=1;jettySize=auto;html=1;exitX=0.75;exitY=1;exitDx=0;exitDy=0;" edge="1" parent="1" source="LB-m9ujF4cegfYI3096--575" target="LB-m9ujF4cegfYI3096--575">
          <mxGeometry relative="1" as="geometry" />
        </mxCell>
        <mxCell id="LB-m9ujF4cegfYI3096--577" value="&lt;font color=&quot;#ffd966&quot; style=&quot;font-size: 30px;&quot;&gt;$$\Delta G_{intra}&amp;nbsp;&lt;br&gt;$$&lt;/font&gt;" style="text;html=1;strokeColor=none;fillColor=none;align=center;verticalAlign=middle;whiteSpace=wrap;rounded=0;movable=1;resizable=1;rotatable=1;deletable=1;editable=1;locked=0;connectable=1;container=0;" vertex="1" parent="1">
          <mxGeometry x="141.39" y="1189" width="122.21" height="30" as="geometry" />
        </mxCell>
        <mxCell id="LB-m9ujF4cegfYI3096--581" value="&lt;font color=&quot;#67ab9f&quot; style=&quot;font-size: 30px;&quot;&gt;$$\Delta{G_{extra}}$$&lt;/font&gt;" style="text;html=1;strokeColor=none;fillColor=none;align=center;verticalAlign=middle;whiteSpace=wrap;rounded=0;movable=1;resizable=1;rotatable=1;deletable=1;editable=1;locked=0;connectable=1;container=0;" vertex="1" parent="1">
          <mxGeometry x="130.5" y="1263" width="125.42" height="30" as="geometry" />
        </mxCell>
        <mxCell id="LB-m9ujF4cegfYI3096--578" value="&lt;font style=&quot;font-size: 30px;&quot;&gt;$$&amp;gt;$$&lt;/font&gt;" style="text;html=1;strokeColor=none;fillColor=none;align=center;verticalAlign=middle;whiteSpace=wrap;rounded=0;" vertex="1" parent="1">
          <mxGeometry x="163.21000000000004" y="1219" width="60" height="30" as="geometry" />
        </mxCell>
        <mxCell id="LB-m9ujF4cegfYI3096--777" style="edgeStyle=none;rounded=0;orthogonalLoop=1;jettySize=auto;html=1;exitX=0.75;exitY=0;exitDx=0;exitDy=0;" edge="1" parent="1" source="LB-m9ujF4cegfYI3096--574" target="LB-m9ujF4cegfYI3096--574">
          <mxGeometry relative="1" as="geometry" />
        </mxCell>
        <mxCell id="LB-m9ujF4cegfYI3096--779" value="" style="endArrow=none;html=1;rounded=0;exitX=1;exitY=0.5;exitDx=0;exitDy=0;strokeWidth=9;entryX=0.5;entryY=1;entryDx=0;entryDy=0;strokeColor=#67AB9F;opacity=70;" edge="1" parent="1" source="LB-m9ujF4cegfYI3096--556" target="LB-m9ujF4cegfYI3096--555">
          <mxGeometry width="50" height="50" relative="1" as="geometry">
            <mxPoint x="481" y="947" as="sourcePoint" />
            <mxPoint x="581" y="897" as="targetPoint" />
          </mxGeometry>
        </mxCell>
        <mxCell id="LB-m9ujF4cegfYI3096--780" value="" style="endArrow=none;html=1;rounded=0;exitX=0.5;exitY=0;exitDx=0;exitDy=0;strokeWidth=5;entryX=0.5;entryY=1;entryDx=0;entryDy=0;strokeColor=#FFD966;opacity=70;" edge="1" parent="1" source="LB-m9ujF4cegfYI3096--552" target="LB-m9ujF4cegfYI3096--554">
          <mxGeometry width="50" height="50" relative="1" as="geometry">
            <mxPoint x="481" y="1047" as="sourcePoint" />
            <mxPoint x="581" y="993" as="targetPoint" />
          </mxGeometry>
        </mxCell>
        <mxCell id="LB-m9ujF4cegfYI3096--781" value="" style="endArrow=none;html=1;rounded=0;strokeWidth=5;entryX=0.5;entryY=1;entryDx=0;entryDy=0;exitX=0.979;exitY=0.498;exitDx=0;exitDy=0;strokeColor=#67AB9F;opacity=70;exitPerimeter=0;" edge="1" parent="1" source="LB-m9ujF4cegfYI3096--558" target="LB-m9ujF4cegfYI3096--553">
          <mxGeometry width="50" height="50" relative="1" as="geometry">
            <mxPoint x="481" y="1147" as="sourcePoint" />
            <mxPoint x="581" y="1097" as="targetPoint" />
          </mxGeometry>
        </mxCell>
        <mxCell id="LB-m9ujF4cegfYI3096--782" value="" style="endArrow=none;html=1;rounded=0;strokeWidth=5;entryX=0.5;entryY=1;entryDx=0;entryDy=0;exitX=0.992;exitY=0.498;exitDx=0;exitDy=0;strokeColor=#67AB9F;opacity=70;exitPerimeter=0;" edge="1" parent="1" source="LB-m9ujF4cegfYI3096--558" target="LB-m9ujF4cegfYI3096--554">
          <mxGeometry width="50" height="50" relative="1" as="geometry">
            <mxPoint x="481" y="1147" as="sourcePoint" />
            <mxPoint x="581" y="993" as="targetPoint" />
          </mxGeometry>
        </mxCell>
        <mxCell id="LB-m9ujF4cegfYI3096--783" value="" style="endArrow=none;html=1;rounded=0;exitX=0.462;exitY=0.019;exitDx=0;exitDy=0;strokeWidth=4;entryX=0.5;entryY=1;entryDx=0;entryDy=0;fillColor=#d5e8d4;strokeColor=#000000;opacity=70;dashed=1;dashPattern=1 1;exitPerimeter=0;" edge="1" parent="1" source="LB-m9ujF4cegfYI3096--552" target="LB-m9ujF4cegfYI3096--553">
          <mxGeometry width="50" height="50" relative="1" as="geometry">
            <mxPoint x="481" y="1047" as="sourcePoint" />
            <mxPoint x="581" y="1097" as="targetPoint" />
          </mxGeometry>
        </mxCell>
        <mxCell id="LB-m9ujF4cegfYI3096--784" value="" style="endArrow=none;html=1;rounded=0;strokeWidth=7;entryX=0.5;entryY=1;entryDx=0;entryDy=0;strokeColor=#67AB9F;opacity=70;exitX=1;exitY=0.5;exitDx=0;exitDy=0;" edge="1" parent="1" source="LB-m9ujF4cegfYI3096--556" target="LB-m9ujF4cegfYI3096--554">
          <mxGeometry width="50" height="50" relative="1" as="geometry">
            <mxPoint x="481" y="947" as="sourcePoint" />
            <mxPoint x="581" y="993" as="targetPoint" />
          </mxGeometry>
        </mxCell>
        <mxCell id="LB-m9ujF4cegfYI3096--785" value="" style="endArrow=none;html=1;rounded=0;exitX=0.5;exitY=0;exitDx=0;exitDy=0;strokeWidth=10;entryX=0.5;entryY=1;entryDx=0;entryDy=0;strokeColor=#FFD966;opacity=70;" edge="1" parent="1" source="LB-m9ujF4cegfYI3096--557" target="LB-m9ujF4cegfYI3096--555">
          <mxGeometry width="50" height="50" relative="1" as="geometry">
            <mxPoint x="485" y="850" as="sourcePoint" />
            <mxPoint x="581" y="897" as="targetPoint" />
          </mxGeometry>
        </mxCell>
        <mxCell id="LB-m9ujF4cegfYI3096--787" value="" style="endArrow=none;html=1;rounded=0;strokeWidth=3;strokeColor=#67AB9F;" edge="1" parent="1">
          <mxGeometry width="50" height="50" relative="1" as="geometry">
            <mxPoint x="128" y="1257" as="sourcePoint" />
            <mxPoint x="267.21" y="1257.3" as="targetPoint" />
          </mxGeometry>
        </mxCell>
        <mxCell id="LB-m9ujF4cegfYI3096--804" value="" style="endArrow=none;html=1;rounded=0;strokeWidth=3;strokeColor=#FFD966;" edge="1" parent="1">
          <mxGeometry width="50" height="50" relative="1" as="geometry">
            <mxPoint x="128.61" y="1181" as="sourcePoint" />
            <mxPoint x="267.82" y="1181.3" as="targetPoint" />
          </mxGeometry>
        </mxCell>
        <mxCell id="LB-m9ujF4cegfYI3096--805" value="" style="rounded=1;whiteSpace=wrap;html=1;arcSize=26;gradientColor=none;gradientDirection=north;fillColor=#FFFFFF;" vertex="1" parent="1">
          <mxGeometry x="400" y="1173" width="265" height="126" as="geometry" />
        </mxCell>
        <mxCell id="LB-m9ujF4cegfYI3096--806" value="&lt;font color=&quot;#ffd966&quot; style=&quot;font-size: 30px;&quot;&gt;$$\Delta G_{intra}&amp;nbsp;&lt;br&gt;$$&lt;/font&gt;" style="text;html=1;strokeColor=none;fillColor=none;align=center;verticalAlign=middle;whiteSpace=wrap;rounded=0;movable=1;resizable=1;rotatable=1;deletable=1;editable=1;locked=0;connectable=1;container=0;" vertex="1" parent="1">
          <mxGeometry x="471.39" y="1189" width="122.21" height="30" as="geometry" />
        </mxCell>
        <mxCell id="LB-m9ujF4cegfYI3096--807" value="&lt;font color=&quot;#67ab9f&quot; style=&quot;font-size: 30px;&quot;&gt;$$\Delta{G_{extra}}$$&lt;/font&gt;" style="text;html=1;strokeColor=none;fillColor=none;align=center;verticalAlign=middle;whiteSpace=wrap;rounded=0;movable=1;resizable=1;rotatable=1;deletable=1;editable=1;locked=0;connectable=1;container=0;" vertex="1" parent="1">
          <mxGeometry x="460.5" y="1263" width="125.42" height="30" as="geometry" />
        </mxCell>
        <mxCell id="LB-m9ujF4cegfYI3096--808" value="&lt;font style=&quot;font-size: 30px;&quot;&gt;$$&amp;lt;$$&lt;/font&gt;" style="text;html=1;strokeColor=none;fillColor=none;align=center;verticalAlign=middle;whiteSpace=wrap;rounded=0;" vertex="1" parent="1">
          <mxGeometry x="493.21000000000004" y="1219" width="60" height="30" as="geometry" />
        </mxCell>
        <mxCell id="LB-m9ujF4cegfYI3096--809" value="" style="endArrow=none;html=1;rounded=0;strokeWidth=3;strokeColor=#67AB9F;" edge="1" parent="1">
          <mxGeometry width="50" height="50" relative="1" as="geometry">
            <mxPoint x="458" y="1257" as="sourcePoint" />
            <mxPoint x="597.21" y="1257.3" as="targetPoint" />
          </mxGeometry>
        </mxCell>
        <mxCell id="LB-m9ujF4cegfYI3096--810" value="" style="endArrow=none;html=1;rounded=0;strokeWidth=3;strokeColor=#FFD966;" edge="1" parent="1">
          <mxGeometry width="50" height="50" relative="1" as="geometry">
            <mxPoint x="458.61" y="1181" as="sourcePoint" />
            <mxPoint x="597.8199999999999" y="1181.3" as="targetPoint" />
          </mxGeometry>
        </mxCell>
      </root>
    </mxGraphModel>
  </diagram>
</mxfile>
